<?xml version="1.0" standalone="yes"?>

<svg version="1.1" viewBox="0.0 0.0 595.1286089238845 135.1968503937008" fill="none" stroke="none" stroke-linecap="square" stroke-miterlimit="10" xmlns="http://www.w3.org/2000/svg" xmlns:xlink="http://www.w3.org/1999/xlink"><clipPath id="p.0"><path d="m0 0l595.1286 0l0 135.19685l-595.1286 0l0 -135.19685z" clip-rule="nonzero"></path></clipPath><g clip-path="url(#p.0)"><path fill="#000000" fill-opacity="0.0" d="m0 0l595.1286 0l0 135.19685l-595.1286 0z" fill-rule="evenodd"></path><defs><linearGradient id="p.1" gradientUnits="userSpaceOnUse" gradientTransform="matrix(10.329261660408433 0.0 0.0 10.329261660408433 0.0 0.0)" spreadMethod="pad" x1="2.3086709952662123" y1="1.4819084340542887" x2="2.3086337734939466" y2="11.811170094395655"><stop offset="0.0" stop-color="#db0000"></stop><stop offset="1.0" stop-color="#540303"></stop></linearGradient></defs><path fill="url(#p.1)" d="m88.37693 40.977047c26.69291 -63.018375 130.79529 0 0 81.02362c-130.79527 -81.02362 -26.692917 -144.04199 0 -81.02362z" fill-rule="evenodd"></path><defs><linearGradient id="p.2" gradientUnits="userSpaceOnUse" gradientTransform="matrix(7.7227378044391175 0.6958879413055467 -0.6958879413055467 7.7227378044391175 0.0 0.0)" spreadMethod="pad" x1="0.6774346837931597" y1="-0.05895361880551004" x2="0.6774067516376387" y2="7.663784185583095"><stop offset="0.0" stop-color="#ffc002"></stop><stop offset="1.0" stop-color="#795b04"></stop></linearGradient></defs><path fill="url(#p.2)" d="m3.9291172 14.926509l28.819063 7.6473436l10.062809 -19.174904l6.5702705 20.673693l29.69743 -2.3744812l-22.248795 13.02635l19.63462 16.800423l-28.819065 -7.6473427l-10.062809 19.1749l-6.5702686 -20.67369l-29.69743 2.3744812l22.248793 -13.02635z" fill-rule="evenodd"></path><path fill="#000000" fill-opacity="0.0" d="m157.71855 9.376322l585.10236 0l0 155.21259l-585.10236 0z" fill-rule="evenodd"></path><path fill="#ffffff" d="m176.09355 45.283825q-3.328125 0 -6.0 -1.46875q-2.671875 -1.46875 -4.203125 -4.078125q-1.515625 -2.609375 -1.515625 -5.84375q0 -3.234377 1.515625 -5.828127q1.53125 -2.609375 4.21875 -4.078125q2.6875 -1.484375 6.015625 -1.484375q2.5 0 4.609375 0.84375q2.109375 0.828125 3.578125 2.421875l-1.5 1.5q-2.625 -2.65625 -6.625 -2.65625q-2.65625 0 -4.828125 1.21875q-2.171875 1.21875 -3.40625 3.328125q-1.234375 2.109375 -1.234375 4.734377q0 2.625 1.234375 4.734375q1.234375 2.109375 3.40625 3.328125q2.171875 1.21875 4.828125 1.21875q4.03125 0 6.625 -2.6875l1.5 1.5q-1.46875 1.609375 -3.59375 2.453125q-2.125 0.84375 -4.625 0.84375zm23.070541 0q-3.328125 0 -6.03125 -1.484375q-2.703125 -1.484375 -4.234375 -4.078125q-1.515625 -2.59375 -1.515625 -5.828125q0 -3.234377 1.515625 -5.812502q1.53125 -2.59375 4.234375 -4.078125q2.703125 -1.5 6.03125 -1.5q3.328125 0 6.0 1.484375q2.671875 1.46875 4.203125 4.078125q1.546875 2.59375 1.546875 5.828127q0 3.234375 -1.546875 5.84375q-1.53125 2.609375 -4.203125 4.078125q-2.671875 1.46875 -6.0 1.46875zm0 -2.109375q2.65625 0 4.796875 -1.1875q2.15625 -1.203125 3.359375 -3.328125q1.21875 -2.140625 1.21875 -4.765625q0 -2.625002 -1.21875 -4.750002q-1.203125 -2.125 -3.359375 -3.328125q-2.140625 -1.203125 -4.796875 -1.203125q-2.65625 0 -4.8125 1.203125q-2.15625 1.203125 -3.390625 3.328125q-1.234375 2.125 -1.234375 4.750002q0 2.625 1.234375 4.765625q1.234375 2.125 3.390625 3.328125q2.15625 1.1875 4.8125 1.1875zm35.785553 -20.484377l0 22.406252l-1.953125 0l-14.40625 -18.171877l0 18.171877l-2.375 0l0 -22.406252l1.953125 0l14.4375 18.187502l0 -18.187502l2.34375 0zm23.062927 11.203127l2.28125 0l0 8.546875q-1.578125 1.375 -3.71875 2.109375q-2.140625 0.734375 -4.515625 0.734375q-3.359375 0 -6.046875 -1.46875q-2.6875 -1.46875 -4.234375 -4.078125q-1.53125 -2.609375 -1.53125 -5.84375q0 -3.234377 1.53125 -5.828127q1.546875 -2.609375 4.234375 -4.078125q2.6875 -1.484375 6.078125 -1.484375q2.5625 0 4.703125 0.828125q2.15625 0.8125 3.625 2.40625l-1.46875 1.5q-2.65625 -2.625 -6.765625 -2.625q-2.71875 0 -4.90625 1.203125q-2.1875 1.203125 -3.4375 3.328125q-1.25 2.125 -1.25 4.750002q0 2.625 1.25 4.734375q1.25 2.109375 3.421875 3.328125q2.171875 1.21875 4.890625 1.21875q3.46875 0 5.859375 -1.71875l0 -7.5625zm24.798553 9.15625l0 2.046875l-15.84375 0l0 -22.406252l15.375 0l0 2.046875l-13.0 0l0 7.968752l11.578125 0l0 2.015625l-11.578125 0l0 8.328125l13.46875 0zm24.298676 -20.359377l0 22.406252l-1.953125 0l-14.40625 -18.171877l0 18.171877l-2.375 0l0 -22.406252l1.953125 0l14.4375 18.187502l0 -18.187502l2.34375 0zm7.2816772 0l2.375 0l0 22.406252l-2.375 0l0 -22.406252zm14.023407 2.046875l-7.875 0l0 -2.046875l18.109375 0l0 2.046875l-7.859375 0l0 20.359377l-2.375 0l0 -20.359377zm28.071167 14.375002l-12.484375 0l-2.6875 5.984375l-2.46875 0l10.234375 -22.406252l2.34375 0l10.234375 22.406252l-2.484375 0l-2.6875 -5.984375zm-0.875 -1.921875l-5.375 -12.031252l-5.375 12.031252l10.75 0zm9.756531 -14.500002l2.375 0l0 20.359377l12.546875 0l0 2.046875l-14.921875 0l0 -22.406252zm36.96643 22.593752q-3.328125 0 -6.0 -1.46875q-2.671875 -1.46875 -4.203125 -4.078125q-1.515625 -2.609375 -1.515625 -5.84375q0 -3.234377 1.515625 -5.828127q1.53125 -2.609375 4.21875 -4.078125q2.6875 -1.484375 6.015625 -1.484375q2.5 0 4.609375 0.84375q2.109375 0.828125 3.578125 2.421875l-1.5 1.5q-2.625 -2.65625 -6.625 -2.65625q-2.65625 0 -4.828125 1.21875q-2.171875 1.21875 -3.40625 3.328125q-1.234375 2.109375 -1.234375 4.734377q0 2.625 1.234375 4.734375q1.234375 2.109375 3.40625 3.328125q2.171875 1.21875 4.828125 1.21875q4.03125 0 6.625 -2.6875l1.5 1.5q-1.46875 1.609375 -3.59375 2.453125q-2.125 0.84375 -4.625 0.84375zm27.336182 -6.171875l-12.484375 0l-2.6875 5.984375l-2.46875 0l10.234375 -22.406252l2.34375 0l10.234375 22.406252l-2.484375 0l-2.6875 -5.984375zm-0.875 -1.921875l-5.375 -12.031252l-5.375 12.031252l10.75 0zm25.053436 7.90625l-5.109375 -7.203125q-0.875 0.09375 -1.796875 0.09375l-6.015625 0l0 7.109375l-2.375 0l0 -22.406252l8.390625 0q4.28125 0 6.71875 2.0625q2.4375 2.046875 2.4375 5.625q0 2.625002 -1.328125 4.437502q-1.328125 1.796875 -3.796875 2.59375l5.46875 7.6875l-2.59375 0zm-6.96875 -9.125q3.328125 0 5.078125 -1.46875q1.765625 -1.46875 1.765625 -4.125002q0 -2.71875 -1.765625 -4.171875q-1.75 -1.46875 -5.078125 -1.46875l-5.953125 0l0 11.234377l5.953125 0zm14.807922 -13.281252l9.125 0q3.546875 0 6.265625 1.4375q2.734375 1.421875 4.234375 3.96875q1.5 2.53125 1.5 5.796877q0 3.265625 -1.5 5.8125q-1.5 2.546875 -4.234375 3.96875q-2.71875 1.421875 -6.265625 1.421875l-9.125 0l0 -22.406252zm9.0 20.359377q2.9375 0 5.140625 -1.171875q2.21875 -1.171875 3.4375 -3.234375q1.21875 -2.0625 1.21875 -4.75q0 -2.687502 -1.21875 -4.750002q-1.21875 -2.0625 -3.4375 -3.234375q-2.203125 -1.171875 -5.140625 -1.171875l-6.625 0l0 18.312502l6.625 0zm17.432068 -20.359377l2.375 0l0 22.406252l-2.375 0l0 -22.406252zm23.726501 16.421877l-12.484375 0l-2.6875 5.984375l-2.46875 0l10.234375 -22.406252l2.34375 0l10.234375 22.406252l-2.484375 0l-2.6875 -5.984375zm-0.875 -1.921875l-5.375 -12.031252l-5.375 12.031252l10.75 0zm19.490906 8.09375q-3.328125 0 -6.0 -1.46875q-2.671875 -1.46875 -4.203125 -4.078125q-1.515625 -2.609375 -1.515625 -5.84375q0 -3.234377 1.515625 -5.828127q1.53125 -2.609375 4.21875 -4.078125q2.6875 -1.484375 6.015625 -1.484375q2.5 0 4.609375 0.84375q2.109375 0.828125 3.578125 2.421875l-1.5 1.5q-2.625 -2.65625 -6.625 -2.65625q-2.65625 0 -4.828125 1.21875q-2.171875 1.21875 -3.40625 3.328125q-1.234375 2.109375 -1.234375 4.734377q0 2.625 1.234375 4.734375q1.234375 2.109375 3.40625 3.328125q2.171875 1.21875 4.828125 1.21875q4.03125 0 6.625 -2.6875l1.5 1.5q-1.46875 1.609375 -3.59375 2.453125q-2.125 0.84375 -4.625 0.84375z" fill-rule="nonzero"></path><path fill="#ffffff" d="m176.09355 83.28382q-3.328125 0 -6.0 -1.46875q-2.671875 -1.46875 -4.203125 -4.078125q-1.515625 -2.609375 -1.515625 -5.84375q0 -3.234375 1.515625 -5.828125q1.53125 -2.6093712 4.21875 -4.078121q2.6875 -1.484375 6.015625 -1.484375q2.5 0 4.609375 0.84375q2.109375 0.828125 3.578125 2.421875l-1.5 1.4999962q-2.625 -2.6562462 -6.625 -2.6562462q-2.65625 0 -4.828125 1.21875q-2.171875 1.2187462 -3.40625 3.3281212q-1.234375 2.109375 -1.234375 4.734375q0 2.625 1.234375 4.734375q1.234375 2.109375 3.40625 3.328125q2.171875 1.21875 4.828125 1.21875q4.03125 0 6.625 -2.6875l1.5 1.5q-1.46875 1.609375 -3.59375 2.453125q-2.125 0.84375 -4.625 0.84375zm27.336166 -6.171875l-12.484375 0l-2.6875 5.984375l-2.46875 0l10.234375 -22.406246l2.34375 0l10.234375 22.406246l-2.484375 0l-2.6875 -5.984375zm-0.875 -1.921875l-5.375 -12.031246l-5.375 12.031246l10.75 0zm14.115921 -12.453121l-7.875 0l0 -2.046875l18.109375 0l0 2.046875l-7.859375 0l0 20.359371l-2.375 0l0 -20.359371zm32.743042 -2.046875l0 22.406246l-2.34375 0l0 -10.34375l-14.015625 0l0 10.34375l-2.375 0l0 -22.406246l2.375 0l0 9.984371l14.015625 0l0 -9.984371l2.34375 0zm23.125443 20.359371l0 2.046875l-15.84375 0l0 -22.406246l15.375 0l0 2.046875l-13.0 0l0 7.968746l11.578125 0l0 2.015625l-11.578125 0l0 8.328125l13.46875 0zm20.861176 2.046875l-5.109375 -7.203125q-0.875 0.09375 -1.796875 0.09375l-6.015625 0l0 7.109375l-2.375 0l0 -22.406246l8.390625 0q4.28125 0 6.71875 2.0625q2.4375 2.0468712 2.4375 5.624996q0 2.625 -1.328125 4.4375q-1.328125 1.796875 -3.796875 2.59375l5.46875 7.6875l-2.59375 0zm-6.96875 -9.125q3.328125 0 5.078125 -1.46875q1.765625 -1.46875 1.765625 -4.125q0 -2.71875 -1.765625 -4.171875q-1.75 -1.4687462 -5.078125 -1.4687462l-5.953125 0l0 11.234371l5.953125 0zm14.807922 -13.281246l2.375 0l0 22.406246l-2.375 0l0 -22.406246zm25.835876 20.359371l0 2.046875l-18.375 0l0 -1.625l14.84375 -18.734371l-14.625 0l0 -2.046875l17.765625 0l0 1.640625l-14.8125 18.718746l15.203125 0zm18.722687 -3.9375l-12.484375 0l-2.6875 5.984375l-2.46875 0l10.234375 -22.406246l2.34375 0l10.234375 22.406246l-2.484375 0l-2.6875 -5.984375zm-0.875 -1.921875l-5.375 -12.031246l-5.375 12.031246l10.75 0zm14.115906 -12.453121l-7.875 0l0 -2.046875l18.109375 0l0 2.046875l-7.859375 0l0 20.359371l-2.375 0l0 -20.359371zm14.008667 -2.046875l2.375 0l0 22.406246l-2.375 0l0 -22.406246zm19.460907 22.593746q-3.328125 0 -6.03125 -1.484375q-2.703125 -1.484375 -4.234375 -4.078125q-1.515625 -2.59375 -1.515625 -5.828125q0 -3.234375 1.515625 -5.8125q1.53125 -2.5937462 4.234375 -4.078121q2.703125 -1.5 6.03125 -1.5q3.328125 0 6.0 1.484375q2.671875 1.46875 4.203125 4.078121q1.546875 2.59375 1.546875 5.828125q0 3.234375 -1.546875 5.84375q-1.53125 2.609375 -4.203125 4.078125q-2.671875 1.46875 -6.0 1.46875zm0 -2.109375q2.65625 0 4.796875 -1.1875q2.15625 -1.203125 3.359375 -3.328125q1.21875 -2.140625 1.21875 -4.765625q0 -2.625 -1.21875 -4.75q-1.203125 -2.125 -3.359375 -3.3281212q-2.140625 -1.203125 -4.796875 -1.203125q-2.65625 0 -4.8125 1.203125q-2.15625 1.2031212 -3.390625 3.3281212q-1.234375 2.125 -1.234375 4.75q0 2.625 1.234375 4.765625q1.234375 2.125 3.390625 3.328125q2.15625 1.1875 4.8125 1.1875zm35.785553 -20.484371l0 22.406246l-1.953125 0l-14.40625 -18.171875l0 18.171875l-2.375 0l0 -22.406246l1.953125 0l14.4375 18.187496l0 -18.187496l2.34375 0z" fill-rule="nonzero"></path><path fill="#ffffff" d="m170.54668 108.40569q-1.9375 0 -3.515625 -0.859375q-1.5625 -0.875 -2.453125 -2.375q-0.890625 -1.515625 -0.890625 -3.40625q0 -1.875 0.890625 -3.390625q0.890625 -1.515625 2.453125 -2.375q1.578125 -0.875 3.515625 -0.875q1.953125 0 3.5 0.859375q1.5625 0.859375 2.453125 2.390625q0.90625 1.515625 0.90625 3.390625q0 1.890625 -0.90625 3.40625q-0.890625 1.515625 -2.453125 2.375q-1.546875 0.859375 -3.5 0.859375zm0 -1.234375q1.5625 0 2.8125 -0.6875q1.25 -0.703125 1.953125 -1.9375q0.703125 -1.25 0.703125 -2.78125q0 -1.53125 -0.703125 -2.765625q-0.703125 -1.25 -1.953125 -1.9375q-1.25 -0.703125 -2.8125 -0.703125q-1.546875 0 -2.8125 0.703125q-1.25 0.6875 -1.96875 1.9375q-0.71875 1.234375 -0.71875 2.765625q0 1.53125 0.71875 2.78125q0.71875 1.234375 1.96875 1.9375q1.265625 0.6875 2.8125 0.6875zm15.215103 1.234375q-2.546875 0 -3.96875 -1.453125q-1.40625 -1.453125 -1.40625 -4.234375l0 -7.484375l1.375 0l0 7.421875q0 2.28125 1.03125 3.40625q1.03125 1.109375 2.96875 1.109375q1.953125 0 2.984375 -1.109375q1.03125 -1.125 1.03125 -3.40625l0 -7.421875l1.34375 0l0 7.484375q0 2.78125 -1.421875 4.234375q-1.40625 1.453125 -3.9375 1.453125zm12.057007 -11.96875l-4.59375 0l0 -1.203125l10.5625 0l0 1.203125l-4.59375 0l0 11.859375l-1.375 0l0 -11.859375zm13.833694 11.96875q-1.9375 0 -3.5 -0.859375q-1.546875 -0.859375 -2.4375 -2.375q-0.890625 -1.515625 -0.890625 -3.40625q0 -1.875 0.890625 -3.390625q0.890625 -1.53125 2.453125 -2.390625q1.5625 -0.859375 3.5 -0.859375q1.453125 0 2.6875 0.484375q1.234375 0.484375 2.09375 1.421875l-0.875 0.875q-1.53125 -1.546875 -3.859375 -1.546875q-1.546875 0 -2.828125 0.71875q-1.265625 0.703125 -1.984375 1.9375q-0.71875 1.21875 -0.71875 2.75q0 1.53125 0.71875 2.765625q0.71875 1.234375 1.984375 1.9375q1.28125 0.703125 2.828125 0.703125q2.34375 0 3.859375 -1.5625l0.875 0.875q-0.859375 0.9375 -2.109375 1.4375q-1.234375 0.484375 -2.6875 0.484375zm13.445099 0q-1.9375 0 -3.515625 -0.859375q-1.5625 -0.875 -2.453125 -2.375q-0.890625 -1.515625 -0.890625 -3.40625q0 -1.875 0.890625 -3.390625q0.890625 -1.515625 2.453125 -2.375q1.578125 -0.875 3.515625 -0.875q1.953125 0 3.5 0.859375q1.5625 0.859375 2.453125 2.390625q0.90625 1.515625 0.90625 3.390625q0 1.890625 -0.90625 3.40625q-0.890625 1.515625 -2.453125 2.375q-1.546875 0.859375 -3.5 0.859375zm0 -1.234375q1.5625 0 2.8125 -0.6875q1.25 -0.703125 1.953125 -1.9375q0.703125 -1.25 0.703125 -2.78125q0 -1.53125 -0.703125 -2.765625q-0.703125 -1.25 -1.953125 -1.9375q-1.25 -0.703125 -2.8125 -0.703125q-1.546875 0 -2.8125 0.703125q-1.25 0.6875 -1.96875 1.9375q-0.71875 1.234375 -0.71875 2.765625q0 1.53125 0.71875 2.78125q0.71875 1.234375 1.96875 1.9375q1.265625 0.6875 2.8125 0.6875zm23.511978 -11.9375l0 13.0625l-1.328125 0l0 -10.453125l-5.125 8.796875l-0.65625 0l-5.125 -8.734375l0 10.390625l-1.328125 0l0 -13.0625l1.140625 0l5.671875 9.6875l5.609375 -9.6875l1.140625 0zm13.488617 11.875l0 1.1875l-9.23439 0l0 -13.0625l8.95314 0l0 1.203125l-7.5781403 0l0 4.640625l6.7656403 0l0 1.171875l-6.7656403 0l0 4.859375l7.8593903 0zm6.856018 1.296875q-1.46875 0 -2.796875 -0.46875q-1.328125 -0.46875 -2.0625 -1.21875l0.546875 -1.078125q0.703125 0.71875 1.875 1.15625q1.1875 0.4375 2.4375 0.4375q1.75 0 2.625 -0.640625q0.875 -0.640625 0.875 -1.671875q0 -0.78125 -0.484375 -1.25q-0.46875 -0.46875 -1.15625 -0.71875q-0.6875 -0.25 -1.921875 -0.546875q-1.46875 -0.375 -2.359375 -0.71875q-0.875 -0.34375 -1.5 -1.046875q-0.625 -0.71875 -0.625 -1.9375q0 -0.984375 0.515625 -1.796875q0.53125 -0.8125 1.609375 -1.296875q1.09375 -0.484375 2.6875 -0.484375q1.125 0 2.1875 0.3125q1.078125 0.296875 1.875 0.84375l-0.46875 1.109375q-0.828125 -0.546875 -1.765625 -0.8125q-0.921875 -0.28125 -1.828125 -0.28125q-1.703125 0 -2.578125 0.671875q-0.859375 0.65625 -0.859375 1.703125q0 0.78125 0.46875 1.265625q0.46875 0.46875 1.1875 0.71875q0.71875 0.25 1.9375 0.546875q1.4375 0.359375 2.3125 0.703125q0.890625 0.34375 1.5 1.046875q0.625 0.703125 0.625 1.890625q0 0.984375 -0.53125 1.796875q-0.53125 0.8125 -1.640625 1.296875q-1.09375 0.46875 -2.6875 0.46875zm17.642792 -13.171875q2.5 0 3.90625 1.203125q1.421875 1.1875 1.421875 3.28125q0 2.078125 -1.421875 3.265625q-1.40625 1.1875 -3.90625 1.1875l-3.515625 0l0 4.125l-1.375 0l0 -13.0625l4.890625 0zm-0.03125 7.734375q1.9375 0 2.953125 -0.84375q1.03125 -0.859375 1.03125 -2.40625q0 -1.59375 -1.03125 -2.4375q-1.015625 -0.84375 -2.953125 -0.84375l-3.484375 0l0 6.53125l3.484375 0zm17.457703 5.328125l-2.984375 -4.203125q-0.5 0.0625 -1.046875 0.0625l-3.515625 0l0 4.140625l-1.375 0l0 -13.0625l4.890625 0q2.5 0 3.90625 1.203125q1.421875 1.1875 1.421875 3.28125q0 1.53125 -0.78125 2.59375q-0.765625 1.046875 -2.203125 1.5l3.203125 4.484375l-1.515625 0zm-4.0625 -5.3125q1.9375 0 2.953125 -0.859375q1.03125 -0.859375 1.03125 -2.40625q0 -1.59375 -1.03125 -2.4375q-1.015625 -0.84375 -2.953125 -0.84375l-3.484375 0l0 6.546875l3.484375 0zm14.332214 5.421875q-1.9375 0 -3.515625 -0.859375q-1.5625 -0.875 -2.453125 -2.375q-0.890625 -1.515625 -0.890625 -3.40625q0 -1.875 0.890625 -3.390625q0.890625 -1.515625 2.453125 -2.375q1.578125 -0.875 3.515625 -0.875q1.953125 0 3.5 0.859375q1.5625 0.859375 2.453125 2.390625q0.90625 1.515625 0.90625 3.390625q0 1.890625 -0.90625 3.40625q-0.890625 1.515625 -2.453125 2.375q-1.546875 0.859375 -3.5 0.859375zm0 -1.234375q1.5625 0 2.8125 -0.6875q1.25 -0.703125 1.953125 -1.9375q0.703125 -1.25 0.703125 -2.78125q0 -1.53125 -0.703125 -2.765625q-0.703125 -1.25 -1.953125 -1.9375q-1.25 -0.703125 -2.8125 -0.703125q-1.546875 0 -2.8125 0.703125q-1.25 0.6875 -1.96875 1.9375q-0.71875 1.234375 -0.71875 2.765625q0 1.53125 0.71875 2.78125q0.71875 1.234375 1.96875 1.9375q1.265625 0.6875 2.8125 0.6875zm11.355713 1.234375q-1.125 0 -2.078125 -0.484375q-0.953125 -0.484375 -1.546875 -1.375l0.828125 -0.9375q1.078125 1.609375 2.8125 1.609375q2.421875 0 2.421875 -2.875l0 -7.90625l-4.78125 0l0 -1.203125l6.140625 0l0 9.046875q0 2.0625 -0.96875 3.09375q-0.953125 1.03125 -2.828125 1.03125zm17.174927 -1.296875l0 1.1875l-9.234375 0l0 -13.0625l8.953125 0l0 1.203125l-7.578125 0l0 4.640625l6.765625 0l0 1.171875l-6.765625 0l0 4.859375l7.859375 0zm8.918518 1.296875q-1.9375 0 -3.5 -0.859375q-1.546875 -0.859375 -2.4375 -2.375q-0.890625 -1.515625 -0.890625 -3.40625q0 -1.875 0.890625 -3.390625q0.890625 -1.53125 2.453125 -2.390625q1.5625 -0.859375 3.5 -0.859375q1.453125 0 2.6875 0.484375q1.234375 0.484375 2.09375 1.421875l-0.875 0.875q-1.53125 -1.546875 -3.859375 -1.546875q-1.546875 0 -2.828125 0.71875q-1.265625 0.703125 -1.984375 1.9375q-0.71875 1.21875 -0.71875 2.75q0 1.53125 0.71875 2.765625q0.71875 1.234375 1.984375 1.9375q1.28125 0.703125 2.828125 0.703125q2.34375 0 3.859375 -1.5625l0.875 0.875q-0.859375 0.9375 -2.109375 1.4375q-1.234375 0.484375 -2.6875 0.484375zm10.288849 -11.96875l-4.59375 0l0 -1.203125l10.5625 0l0 1.203125l-4.59375 0l0 11.859375l-1.375 0l0 -11.859375zm10.924774 6.3125l18.65625 0l0 0.953125l-18.65625 0l0 -0.953125z" fill-rule="nonzero"></path><path fill="#ffffff" d="m405.96887 108.29632l-2.5625 -3.59375q-0.421875 0.046875 -0.890625 0.046875l-3.0 0l0 3.546875l-1.1875 0l0 -11.203125l4.1875 0q2.140625 0 3.359375 1.03125q1.21875 1.015625 1.21875 2.8125q0 1.3125 -0.671875 2.21875q-0.65625 0.90625 -1.890625 1.296875l2.734375 3.84375l-1.296875 0zm-3.484375 -4.5625q1.65625 0 2.53125 -0.734375q0.890625 -0.734375 0.890625 -2.0625q0 -1.359375 -0.890625 -2.078125q-0.875 -0.734375 -2.53125 -0.734375l-2.96875 0l0 5.609375l2.96875 0zm14.489899 0.703125l-7.03125 0q0.09375 1.3125 1.0 2.125q0.921875 0.8125 2.3125 0.8125q0.78125 0 1.4375 -0.28125q0.65625 -0.28125 1.140625 -0.828125l0.640625 0.734375q-0.5625 0.671875 -1.40625 1.03125q-0.84375 0.34375 -1.84375 0.34375q-1.296875 0 -2.296875 -0.546875q-1.0 -0.5625 -1.5625 -1.53125q-0.5625 -0.96875 -0.5625 -2.203125q0 -1.234375 0.53125 -2.203125q0.546875 -0.984375 1.484375 -1.53125q0.9375 -0.546875 2.09375 -0.546875q1.171875 0 2.09375 0.546875q0.9375 0.546875 1.453125 1.515625q0.53125 0.96875 0.53125 2.21875l-0.015625 0.34375zm-4.0625 -3.640625q-1.21875 0 -2.046875 0.78125q-0.8125 0.765625 -0.921875 2.015625l5.96875 0q-0.109375 -1.25 -0.9375 -2.015625q-0.828125 -0.78125 -2.0625 -0.78125zm14.195282 -0.921875l0 7.390625q0 2.15625 -1.046875 3.1875q-1.046875 1.03125 -3.15625 1.03125q-1.171875 0 -2.21875 -0.34375q-1.046875 -0.34375 -1.703125 -0.953125l0.578125 -0.859375q0.609375 0.53125 1.46875 0.828125q0.875 0.3125 1.84375 0.3125q1.59375 0 2.34375 -0.75q0.75 -0.734375 0.75 -2.296875l0 -1.078125q-0.515625 0.796875 -1.375 1.21875q-0.859375 0.421875 -1.90625 0.421875q-1.171875 0 -2.140625 -0.515625q-0.96875 -0.53125 -1.53125 -1.46875q-0.546875 -0.9375 -0.546875 -2.125q0 -1.171875 0.546875 -2.09375q0.5625 -0.9375 1.515625 -1.453125q0.96875 -0.515625 2.15625 -0.515625q1.078125 0 1.9375 0.4375q0.875 0.4375 1.390625 1.25l0 -1.625l1.09375 0zm-4.296875 7.09375q0.90625 0 1.640625 -0.390625q0.734375 -0.390625 1.140625 -1.09375q0.40625 -0.703125 0.40625 -1.609375q0 -0.890625 -0.40625 -1.578125q-0.40625 -0.703125 -1.140625 -1.09375q-0.71875 -0.390625 -1.640625 -0.390625q-0.921875 0 -1.65625 0.390625q-0.71875 0.375 -1.125 1.078125q-0.40625 0.703125 -0.40625 1.59375q0 0.90625 0.40625 1.609375q0.40625 0.703125 1.125 1.09375q0.734375 0.390625 1.65625 0.390625zm7.476013 -7.09375l1.140625 0l0 8.421875l-1.140625 0l0 -8.421875zm0.578125 -1.828125q-0.359375 0 -0.59375 -0.234375q-0.234375 -0.25 -0.234375 -0.59375q0 -0.3125 0.234375 -0.546875q0.234375 -0.25 0.59375 -0.25q0.34375 0 0.578125 0.234375q0.25 0.234375 0.25 0.546875q0 0.359375 -0.25 0.609375q-0.234375 0.234375 -0.578125 0.234375zm5.991516 10.328125q-1.03125 0 -1.96875 -0.296875q-0.9375 -0.296875 -1.453125 -0.734375l0.5 -0.90625q0.53125 0.421875 1.328125 0.6875q0.8125 0.265625 1.671875 0.265625q1.15625 0 1.703125 -0.359375q0.546875 -0.359375 0.546875 -1.015625q0 -0.46875 -0.3125 -0.734375q-0.296875 -0.265625 -0.765625 -0.390625q-0.453125 -0.140625 -1.21875 -0.28125q-1.03125 -0.1875 -1.65625 -0.375q-0.625 -0.203125 -1.0625 -0.6875q-0.4375 -0.484375 -0.4375 -1.328125q0 -1.0625 0.875 -1.734375q0.890625 -0.671875 2.453125 -0.671875q0.8125 0 1.625 0.21875q0.828125 0.21875 1.359375 0.5625l-0.5 0.921875q-1.046875 -0.71875 -2.484375 -0.71875q-1.09375 0 -1.640625 0.390625q-0.546875 0.375 -0.546875 1.0q0 0.484375 0.3125 0.765625q0.3125 0.28125 0.765625 0.421875q0.46875 0.140625 1.28125 0.28125q1.015625 0.1875 1.625 0.390625q0.609375 0.1875 1.03125 0.65625q0.4375 0.453125 0.4375 1.28125q0 1.09375 -0.921875 1.75q-0.921875 0.640625 -2.546875 0.640625zm9.995911 -0.59375q-0.3125 0.296875 -0.796875 0.453125q-0.46875 0.140625 -0.984375 0.140625q-1.171875 0 -1.8125 -0.640625q-0.640625 -0.640625 -0.640625 -1.8125l0 -5.078125l-1.515625 0l0 -0.96875l1.515625 0l0 -1.828125l1.125 0l0 1.828125l2.5625 0l0 0.96875l-2.5625 0l0 5.015625q0 0.75 0.375 1.15625q0.375 0.390625 1.09375 0.390625q0.34375 0 0.671875 -0.109375q0.328125 -0.125 0.5625 -0.328125l0.40625 0.8125zm3.1522522 -6.25q0.40625 -0.84375 1.1875 -1.28125q0.796875 -0.4375 1.96875 -0.4375l0 1.109375l-0.28125 -0.015625q-1.328125 0 -2.078125 0.8125q-0.75 0.8125 -0.75 2.296875l0 4.28125l-1.140625 0l0 -8.421875l1.09375 0l0 1.65625zm12.400391 -1.65625l-4.203125 9.4375q-0.515625 1.171875 -1.1875 1.671875q-0.671875 0.5 -1.625 0.5q-0.59375 0 -1.125 -0.203125q-0.53125 -0.1875 -0.921875 -0.5625l0.53125 -0.859375q0.640625 0.640625 1.53125 0.640625q0.578125 0 0.984375 -0.328125q0.421875 -0.3125 0.765625 -1.078125l0.375 -0.8125l-3.765625 -8.40625l1.1875 0l3.171875 7.15625l3.15625 -7.15625l1.125 0zm13.676514 8.421875l-2.5625 -3.59375q-0.421875 0.046875 -0.890625 0.046875l-3.0 0l0 3.546875l-1.1875 0l0 -11.203125l4.1875 0q2.140625 0 3.359375 1.03125q1.21875 1.015625 1.21875 2.8125q0 1.3125 -0.671875 2.21875q-0.65625 0.90625 -1.890625 1.296875l2.734375 3.84375l-1.296875 0zm-3.484375 -4.5625q1.65625 0 2.53125 -0.734375q0.890625 -0.734375 0.890625 -2.0625q0 -1.359375 -0.890625 -2.078125q-0.875 -0.734375 -2.53125 -0.734375l-2.96875 0l0 5.609375l2.96875 0zm7.1617737 -3.859375l1.140625 0l0 8.421875l-1.140625 0l0 -8.421875zm0.578125 -1.828125q-0.359375 0 -0.59375 -0.234375q-0.234375 -0.25 -0.234375 -0.59375q0 -0.3125 0.234375 -0.546875q0.234375 -0.25 0.59375 -0.25q0.34375 0 0.578125 0.234375q0.25 0.234375 0.25 0.546875q0 0.359375 -0.25 0.609375q-0.234375 0.234375 -0.578125 0.234375zm5.991516 10.328125q-1.03125 0 -1.96875 -0.296875q-0.9375 -0.296875 -1.453125 -0.734375l0.5 -0.90625q0.53125 0.421875 1.328125 0.6875q0.8125 0.265625 1.671875 0.265625q1.15625 0 1.703125 -0.359375q0.546875 -0.359375 0.546875 -1.015625q0 -0.46875 -0.3125 -0.734375q-0.296875 -0.265625 -0.765625 -0.390625q-0.453125 -0.140625 -1.21875 -0.28125q-1.03125 -0.1875 -1.65625 -0.375q-0.625 -0.203125 -1.0625 -0.6875q-0.4375 -0.484375 -0.4375 -1.328125q0 -1.0625 0.875 -1.734375q0.890625 -0.671875 2.453125 -0.671875q0.8125 0 1.625 0.21875q0.828125 0.21875 1.359375 0.5625l-0.5 0.921875q-1.046875 -0.71875 -2.484375 -0.71875q-1.09375 0 -1.640625 0.390625q-0.546875 0.375 -0.546875 1.0q0 0.484375 0.3125 0.765625q0.3125 0.28125 0.765625 0.421875q0.46875 0.140625 1.28125 0.28125q1.015625 0.1875 1.625 0.390625q0.609375 0.1875 1.03125 0.65625q0.4375 0.453125 0.4375 1.28125q0 1.09375 -0.921875 1.75q-0.921875 0.640625 -2.546875 0.640625zm8.683411 -4.296875l-1.984375 1.8125l0 2.40625l-1.140625 0l0 -11.875l1.140625 0l0 8.046875l5.03125 -4.59375l1.40625 0l-3.609375 3.453125l3.9375 4.96875l-1.390625 0l-3.390625 -4.21875zm18.573608 4.21875l-2.5625 -3.59375q-0.421875 0.046875 -0.890625 0.046875l-3.0 0l0 3.546875l-1.1875 0l0 -11.203125l4.1875 0q2.140625 0 3.359375 1.03125q1.21875 1.015625 1.21875 2.8125q0 1.3125 -0.671875 2.21875q-0.65625 0.90625 -1.890625 1.296875l2.734375 3.84375l-1.296875 0zm-3.484375 -4.5625q1.65625 0 2.53125 -0.734375q0.890625 -0.734375 0.890625 -2.0625q0 -1.359375 -0.890625 -2.078125q-0.875 -0.734375 -2.53125 -0.734375l-2.96875 0l0 5.609375l2.96875 0zm14.489929 0.703125l-7.03125 0q0.09375 1.3125 1.0 2.125q0.921875 0.8125 2.3125 0.8125q0.78125 0 1.4375 -0.28125q0.65625 -0.28125 1.140625 -0.828125l0.640625 0.734375q-0.5625 0.671875 -1.40625 1.03125q-0.84375 0.34375 -1.84375 0.34375q-1.296875 0 -2.296875 -0.546875q-1.0 -0.5625 -1.5625 -1.53125q-0.5625 -0.96875 -0.5625 -2.203125q0 -1.234375 0.53125 -2.203125q0.546875 -0.984375 1.484375 -1.53125q0.9375 -0.546875 2.09375 -0.546875q1.171875 0 2.09375 0.546875q0.9375 0.546875 1.453125 1.515625q0.53125 0.96875 0.53125 2.21875l-0.015625 0.34375zm-4.0625 -3.640625q-1.21875 0 -2.046875 0.78125q-0.8125 0.765625 -0.921875 2.015625l5.96875 0q-0.109375 -1.25 -0.9375 -2.015625q-0.828125 -0.78125 -2.0625 -0.78125zm10.742126 -0.984375q1.1875 0 2.140625 0.546875q0.96875 0.53125 1.5 1.515625q0.546875 0.96875 0.546875 2.21875q0 1.265625 -0.546875 2.25q-0.53125 0.96875 -1.484375 1.5q-0.953125 0.53125 -2.15625 0.53125q-1.03125 0 -1.859375 -0.421875q-0.8125 -0.421875 -1.34375 -1.234375l0 4.6875l-1.140625 0l0 -11.53125l1.09375 0l0 1.671875q0.515625 -0.828125 1.34375 -1.28125q0.84375 -0.453125 1.90625 -0.453125zm-0.078125 7.5625q0.875 0 1.59375 -0.40625q0.71875 -0.421875 1.125 -1.171875q0.40625 -0.75 0.40625 -1.703125q0 -0.96875 -0.40625 -1.703125q-0.40625 -0.75 -1.125 -1.15625q-0.71875 -0.421875 -1.59375 -0.421875q-0.90625 0 -1.625 0.421875q-0.703125 0.40625 -1.109375 1.15625q-0.40625 0.734375 -0.40625 1.703125q0 0.953125 0.40625 1.703125q0.40625 0.75 1.109375 1.171875q0.71875 0.40625 1.625 0.40625zm10.035522 1.0q-1.21875 0 -2.203125 -0.546875q-0.96875 -0.5625 -1.53125 -1.53125q-0.5625 -0.96875 -0.5625 -2.203125q0 -1.234375 0.5625 -2.203125q0.5625 -0.984375 1.53125 -1.53125q0.984375 -0.546875 2.203125 -0.546875q1.203125 0 2.171875 0.546875q0.984375 0.546875 1.53125 1.53125q0.5625 0.96875 0.5625 2.203125q0 1.234375 -0.5625 2.203125q-0.546875 0.96875 -1.53125 1.53125q-0.96875 0.546875 -2.171875 0.546875zm0 -1.0q0.890625 0 1.59375 -0.40625q0.71875 -0.421875 1.109375 -1.171875q0.40625 -0.75 0.40625 -1.703125q0 -0.96875 -0.40625 -1.71875q-0.390625 -0.75 -1.109375 -1.15625q-0.703125 -0.40625 -1.59375 -0.40625q-0.90625 0 -1.625 0.40625q-0.703125 0.40625 -1.109375 1.15625q-0.40625 0.75 -0.40625 1.71875q0 0.953125 0.40625 1.703125q0.40625 0.75 1.109375 1.171875q0.71875 0.40625 1.625 0.40625zm7.6726074 -5.84375q0.40625 -0.84375 1.1875 -1.28125q0.796875 -0.4375 1.96875 -0.4375l0 1.109375l-0.28125 -0.015625q-1.328125 0 -2.078125 0.8125q-0.75 0.8125 -0.75 2.296875l0 4.28125l-1.140625 0l0 -8.421875l1.09375 0l0 1.65625zm9.759766 6.25q-0.3125 0.296875 -0.796875 0.453125q-0.46875 0.140625 -0.984375 0.140625q-1.171875 0 -1.8125 -0.640625q-0.640625 -0.640625 -0.640625 -1.8125l0 -5.078125l-1.515625 0l0 -0.96875l1.515625 0l0 -1.828125l1.125 0l0 1.828125l2.5625 0l0 0.96875l-2.5625 0l0 5.015625q0 0.75 0.375 1.15625q0.375 0.390625 1.09375 0.390625q0.34375 0 0.671875 -0.109375q0.328125 -0.125 0.5625 -0.328125l0.40625 0.8125zm2.0585327 -7.90625l1.140625 0l0 8.421875l-1.140625 0l0 -8.421875zm0.578125 -1.828125q-0.359375 0 -0.59375 -0.234375q-0.234375 -0.25 -0.234375 -0.59375q0 -0.3125 0.234375 -0.546875q0.234375 -0.25 0.59375 -0.25q0.34375 0 0.578125 0.234375q0.25 0.234375 0.25 0.546875q0 0.359375 -0.25 0.609375q-0.234375 0.234375 -0.578125 0.234375zm8.022766 1.765625q1.578125 0 2.515625 0.921875q0.9375 0.921875 0.9375 2.6875l0 4.875l-1.140625 0l0 -4.765625q0 -1.3125 -0.65625 -2.0q-0.65625 -0.6875 -1.875 -0.6875q-1.359375 0 -2.15625 0.8125q-0.78125 0.796875 -0.78125 2.21875l0 4.421875l-1.140625 0l0 -8.421875l1.09375 0l0 1.5625q0.46875 -0.765625 1.28125 -1.1875q0.828125 -0.4375 1.921875 -0.4375zm14.332031 0.0625l0 7.390625q0 2.15625 -1.046875 3.1875q-1.046875 1.03125 -3.15625 1.03125q-1.171875 0 -2.21875 -0.34375q-1.046875 -0.34375 -1.703125 -0.953125l0.578125 -0.859375q0.609375 0.53125 1.46875 0.828125q0.875 0.3125 1.84375 0.3125q1.59375 0 2.34375 -0.75q0.75 -0.734375 0.75 -2.296875l0 -1.078125q-0.515625 0.796875 -1.375 1.21875q-0.859375 0.421875 -1.90625 0.421875q-1.171875 0 -2.140625 -0.515625q-0.96875 -0.53125 -1.53125 -1.46875q-0.546875 -0.9375 -0.546875 -2.125q0 -1.171875 0.546875 -2.09375q0.5625 -0.9375 1.515625 -1.453125q0.96875 -0.515625 2.15625 -0.515625q1.078125 0 1.9375 0.4375q0.875 0.4375 1.390625 1.25l0 -1.625l1.09375 0zm-4.296875 7.09375q0.90625 0 1.640625 -0.390625q0.734375 -0.390625 1.140625 -1.09375q0.40625 -0.703125 0.40625 -1.609375q0 -0.890625 -0.40625 -1.578125q-0.40625 -0.703125 -1.140625 -1.09375q-0.71875 -0.390625 -1.640625 -0.390625q-0.921875 0 -1.65625 0.390625q-0.71875 0.375 -1.125 1.078125q-0.40625 0.703125 -0.40625 1.59375q0 0.90625 0.40625 1.609375q0.40625 0.703125 1.125 1.09375q0.734375 0.390625 1.65625 0.390625z" fill-rule="nonzero"></path><path fill="#000000" fill-opacity="0.0" d="m37.189495 53.81618l147.65353 -44.440945l24.913391 84.09449l-147.65355 44.44095z" fill-rule="evenodd"></path><path fill="#f3f3f3" d="m48.946754 74.140015q-0.319561 -1.0786667 -0.327713 -2.3163376q0.0023727417 -1.2571564 0.27241516 -2.5459137q0.28056717 -1.3082504 0.786705 -2.5701752q0.5211029 -1.2664261 1.2778015 -2.342682q0.76721954 -1.0957375 1.7323799 -1.90839q1.0100441 -0.82616043 2.162117 -1.1729126q0.8827591 -0.26569366 1.4881058 0.2374382q0.6053467 0.50313187 0.8183861 1.2222481q0.1198349 0.40449905 0.116680145 0.94392395q-0.0075912476 0.52444077 -0.14984131 1.0894127q-0.14669037 0.5499878 -0.45022964 1.0655975q-0.28857422 0.5111084 -1.3957634 0.8443527q-0.2529869 -0.8539429 -0.25642014 -1.1955795q0.01153183 -0.34613037 0.06908798 -0.5919037q0.07252121 -0.25026703 0.07302475 -0.4135971q0.011024475 -0.18280792 -0.042232513 -0.36258698q0.07481003 -0.022514343 -0.006088257 0.034469604q-0.08533096 0.041999817 -0.30976105 0.109550476q-0.044887543 0.013511658 -0.1945076 0.058540344q-0.10473251 0.03152466 -0.18906021 -0.25312805q-0.757843 0.96237946 -1.5965805 1.9817429q-0.82377243 1.0148621 -1.3460197 2.1674042q-0.5266838 1.1375656 -0.6709442 2.3558426q-0.14870071 1.2032852 0.2108078 2.4167938q0.2396698 0.8089981 0.67334366 1.722786q0.4441986 0.89430237 1.0191154 1.5697632q0.5854454 0.655983 1.2960281 0.9642639q0.725544 0.3037796 1.5484543 0.056098938q0.80794907 -0.24317169 1.5565491 -0.63166046q0.75912476 -0.40797424 1.5437355 -0.83994293q0.78017426 -0.44693756 1.588623 -0.85343933q0.81897354 -0.42598724 1.7166939 -0.6961899q0.25435257 -0.076553345 0.7237587 -0.08729553q0.46496582 -0.025726318 0.6602516 0.633461q0.088768005 0.29963684 -0.05133438 0.6518326q-0.14009857 0.35219574 -0.3472786 0.64299774q-0.20718002 0.290802 -0.41106415 0.48270416q-0.20388412 0.19190216 -0.3102646 0.27287292l-5.466793 2.9997482q-0.07481003 0.022514343 -0.23495483 0.08703613q-0.1601448 0.06451416 -0.27983856 0.10054016q-0.94260406 0.28370667 -1.821064 0.12385559q-0.87845993 -0.15985107 -1.6245499 -0.5879898q-0.7460861 -0.42813873 -1.361454 -1.0751114q-0.6153679 -0.64697266 -1.1093941 -1.3794174q-0.48350143 -0.75193024 -0.82790375 -1.5294113q-0.34884262 -0.7924576 -0.55300903 -1.4816132zm14.443447 0.09112549q-0.15913773 -0.26213074 -0.18132782 -0.33704376l-0.044384003 -0.14981079q-0.18641281 -0.6292267 0.05892563 -1.1762695q0.24533844 -0.5470505 0.9186287 -0.7496948q0.41893768 -0.126091 0.99765015 0.28714752q0.589241 0.39376068 1.3087006 0.7320099q0.71945953 0.3382492 1.6173172 0.50857544q0.89785767 0.17033386 1.945198 -0.14489746q0.40397644 -0.12158966 0.7647095 -0.27911377q0.3712616 -0.17700958 0.59010315 -0.37342072q0.22937012 -0.21588898 0.31076813 -0.436203q0.0769577 -0.2352829 -0.007369995 -0.5199356q-0.2574234 -0.868927 -0.8555374 -1.2926483q-0.6025543 -0.43870544 -1.451088 -0.60756683q-0.85297394 -0.18383789 -1.8277969 -0.118881226q-0.97481537 0.064956665 -1.8404617 0.11338043q-0.87008667 0.033432007 -1.6697922 0.029373169q-0.7891922 -0.02355194 -1.0111084 -0.7726288q-0.07545471 -0.25468445 0.18613052 -0.25183105q0.27210617 -0.01662445 -0.2300148 -0.061309814q0.123493195 -0.2982483 0.24977875 -0.53206635q0.121845245 -0.24879456 0.24812698 -0.4826126q0.39230728 -0.21598053 0.86385727 -0.4394989q0.4671173 -0.23849487 0.99572754 -0.5444565q0.5241699 -0.3209381 1.0394669 -0.67183685q0.51529694 -0.35090637 0.88262177 -0.70622253q0.36288452 -0.3703003 0.5118637 -0.6925354q0.14897156 -0.3222351 0.06908417 -0.5919037q-0.035507202 -0.11985397 -0.24003601 -0.2051506q-0.20452118 -0.08529663 -0.54979706 -0.09560013q-0.34970856 -0.025283813 -0.7326355 0.0573349q-0.36795807 0.07811737 -0.6073532 0.15016937q-0.2244339 0.06755066 -0.683815 0.22212982q-0.44886017 0.13510132 -0.8650055 0.32562256q-0.40118027 0.1860199 -0.742012 0.19069672q-0.330307 -0.014808655 -0.0011444092 -0.11387634l0.319561 1.0786667q-1.2867317 0.38728333 -1.9047508 0.1164093q-0.6180191 -0.27087402 -0.8576889 -1.0798798q-0.12427521 -0.41947937 -0.0035743713 -0.7821579q0.13122559 -0.3821602 0.3727684 -0.66698456q0.241539 -0.28482437 0.52910995 -0.46928406q0.2980957 -0.20394135 0.5973358 -0.29401016l3.6208 -1.0897903q0.70321655 -0.21165466 1.3799362 -0.07266998q0.69168854 0.13447952 1.2421265 0.50728226q0.5459976 0.3578186 0.93743896 0.90901566q0.4064026 0.5466957 0.5883789 1.1609383q0.21747589 0.7340927 -0.08326721 1.3141327q-0.2902298 0.56056213 -0.6397934 0.9758072q-0.33461 0.41073608 -0.516304 0.67755127q-0.18169403 0.26680756 -0.14174652 0.40164185q-0.40397644 0.12158966 -0.12198639 -0.19172668l-0.25041962 0.25485992q0.88440704 -0.31513977 1.7728882 -0.011444092q0.8990021 0.2842102 1.6822433 0.78274536q0.7832413 0.4985428 1.3864441 1.214447q0.58823395 0.7204132 0.87228394 1.6792297q0.27074432 0.91387177 0.0664978 1.7096329q-0.20425415 0.7957535 -0.71725464 1.3744125q-0.5130081 0.57865906 -1.1840134 1.0090561q-0.6604767 0.4109192 -1.4235382 0.64058685q-0.66111755 0.13371277 -1.2773514 0.2539215q-0.6206665 0.10522461 -1.4425735 0.026252747q-0.8263397 -0.093948364 -1.9343109 -0.47843933q-1.1079712 -0.38448334 -2.8872185 -1.2196274zm19.275097 -2.1952972q-0.7644882 -0.7652664 -1.3206482 -1.7074509q-0.54563904 -0.96167755 -1.0491867 -2.0012894q-0.4930191 -1.0590973 -0.8729248 -1.9564285q-0.3693924 -0.9168167 -0.63225555 -1.4740753l-1.2826843 -4.329666q-0.14646912 -0.49438858 0.097221375 -0.9919853q0.25865173 -0.5021019 0.7673645 -0.6552162q0.044883728 -0.013507843 0.11969757 -0.036026q0.07480621 -0.022514343 0.5685501 -0.1711235q0.48693848 1.0935631 0.7492981 1.814148q0.2728958 0.7010994 0.5069809 1.3812447q0.24461365 0.6606598 0.5640335 1.2988014q0.28505707 0.6321678 0.50239563 0.9257393q0.09421539 -0.012039185 0.5159378 -0.07370758q0.43389893 -0.13059235 1.0456924 -0.2657776q0.56855774 -0.1711235 1.2035522 -0.5580559q0.63054657 -0.40190887 1.0925827 -0.9325905q0.47699738 -0.53518295 0.67910004 -1.1181679q0.21705627 -0.5874901 0.057273865 -1.1268234q-0.18196869 -0.61424255 -0.7623291 -0.9780388q-0.5848007 -0.37877655 -1.4765778 -0.5835724q-0.8962097 -0.21977997 -1.9514236 -0.26116562q-1.0552139 -0.041381836 -2.0449905 0.028079987q-0.9897766 0.06946182 -1.8093948 0.21824646q-0.8240509 0.1338005 -1.2429886 0.25989532q-0.1645813 0.049533844 -0.57299805 0.15614319q-0.39788818 0.087120056 -0.8572693 0.24170303q-0.4638214 0.13960266 -0.8395157 0.30163193q-0.36074066 0.15752792 -0.49424744 0.31193542q-0.091423035 0.07646561 -0.16114807 0.3911667q-0.05921173 0.2952156 -0.13223267 0.7088127q-0.07746124 0.39861298 -0.2507782 0.85871506q-0.17775726 0.44511795 -0.65654755 0.58922195l-0.05984497 0.018013q-0.13465881 0.04053116 -0.2915039 0.0061531067q-0.26158905 -0.0028572083 -0.4046173 -0.15561676q-0.13250732 -0.17224121 -0.24841309 -0.3984375q-0.11589813 -0.22619247 -0.26565552 -0.62168884q-0.14975739 -0.39549637 -0.345047 -1.0546837q-0.14646912 -0.49438858 0.12550354 -0.9515457q0.2824936 -0.4766426 0.7185364 -0.82001114q0.45101166 -0.34786987 0.9153366 -0.6507988q0.4792862 -0.30743027 0.93143463 -0.5414238q0.45215607 -0.23399353 0.8128891 -0.39151764q0.3712616 -0.1770134 0.55080414 -0.2310524q0.8528366 -0.25668716 2.0509338 -0.50307083q1.1936646 -0.2613678 2.5154037 -0.3654709q1.3217316 -0.1041069 2.6862106 -0.008945465q1.3794327 0.090652466 2.571083 0.48258972q1.1872177 0.3769493 2.1384811 1.1675873q0.9556961 0.8056183 1.3418274 2.1090126q0.4619522 0.95422745 0.20179749 1.9463043q-0.24520111 0.9875717 -0.875618 1.8300095q-0.615448 0.8379364 -1.4592667 1.5651169q-0.84381866 0.72717285 -1.6810455 1.2565613q-0.83722687 0.5293884 -1.6080246 0.8429642q-0.7752304 0.29859924 -0.9338684 -0.12685394l0.37405396 -0.112586975q0.2441101 0.82398987 0.64671326 1.632904q0.40260315 0.8089142 0.6733475 1.722786q0.03993988 0.13483429 0.089904785 0.41350555q0.045532227 0.26369476 -3.5858154E-4 0.60385895q-0.035369873 0.32067108 -0.2336731 0.6414337q-0.19830322 0.32076263 -0.9968643 0.43058014zm6.4503174 -10.034851q-0.41047668 -1.1655273 -0.3620758 -2.3223152q0.06336212 -1.1612892 0.51194763 -2.1774406q0.46353912 -1.0206566 1.315094 -1.831749q0.8587723 -0.7316818 2.039627 -1.2013168q2.0742722 -0.3142891 4.0483932 -0.14154053q1.984642 0.15325928 3.6895828 0.8475914q1.7049408 0.6943321 3.0121307 1.9163132q1.3221512 1.2174759 2.018837 3.1290512q0.1534729 1.6181793 -0.46134186 2.7333183q-0.61924744 1.1001587 -1.6082458 1.8873444q-0.9934387 0.7722168 -2.1881027 1.3602295q-1.1436996 0.54003906 -2.1316986 1.0005798q-1.6907043 0.508873 -3.261345 0.37786102q-1.555687 -0.13550568 -2.8615952 -0.8030853q-1.3059082 -0.66757965 -2.2872314 -1.8897324q-0.98132324 -1.2221603 -1.4739761 -2.885109zm2.1744308 -0.8013191q0.2718811 1.0277519 1.0020065 1.7870407q0.7301178 0.7592888 1.7017822 1.2337532q0.9672241 0.45948792 2.0474243 0.6402054q1.0757523 0.16574097 2.0283813 0.025871277q0.28427887 -0.08555603 0.8051529 -0.30760193q0.5358429 -0.22654724 1.1436996 -0.54003906q0.60341644 -0.32847977 1.1802139 -0.74684143q0.57678986 -0.41836548 0.98176575 -0.86660385q0.4049759 -0.44823837 0.5722122 -0.87387085q0.17775726 -0.44512177 0.06236267 -0.8346405q-0.47362518 -1.0486183 -1.2741165 -1.7704124q-0.80493164 -0.73677444 -1.8065186 -1.2022324q-1.0015869 -0.46545792 -2.1056213 -0.6716385q-1.0935135 -0.22566605 -2.105484 -0.23110962q-1.0014496 -0.024932861 -1.8360214 0.12835693q-0.7941284 0.12479401 -1.2014008 0.3452797q-0.57678986 0.41836548 -0.8803253 0.9339752q-0.29301453 0.49612808 -0.41422272 1.022129q-0.11067963 0.5065155 -0.077819824 1.0024681q0.047813416 0.49144745 0.17652893 0.92591095zm19.238914 -7.5365143q0.3590927 -0.108078 0.81238556 -0.22819519q0.45330048 -0.12011719 0.9360199 -0.08591461q0.49768066 0.029697418 0.93336487 0.2901802q0.44620514 0.24100113 0.64149475 0.90018845q0.3106842 1.048706 -0.6768036 1.3459244q-0.6284027 0.1891365 -1.1321716 0.19390488q-0.5037689 0.0047683716 -0.9975128 0.15337753q-0.6882553 0.2071495 -1.3498764 0.50418854q-0.6616211 0.29703903 -1.3636856 0.62257385q-0.70651245 0.31054688 -1.4130173 0.62109756q-0.6959839 0.29106522 -1.9677505 0.6738434q-0.3816986 -1.2884102 -0.14524078 -1.8654213q0.23202515 -0.5919914 0.6952057 -1.0087929q0.46318054 -0.41680527 1.0544281 -0.6763458q0.5868149 -0.2745247 1.195816 -0.47414017q0.60900116 -0.19961548 1.1581573 -0.38121796q0.56411743 -0.18610764 0.9996643 -0.3661499q0 0 0.1047287 -0.03152466q0.044891357 -0.013507843 0.14518738 -0.060012817q0.10029602 -0.046504974 0.20502472 -0.07802963q0.11969757 -0.036026 0.1645813 -0.049533844zm9.712929 1.3354301q0.38965607 0.1601181 0.89369965 1.0364037q0.51457214 0.8568039 0.87114716 1.5653496q0.3521347 0.69356537 0.45815277 1.2164497q0.11553955 0.8300476 -0.6187439 0.9368286q0.26758575 1.4532967 -0.46977234 0.6145973q-0.7417908 -0.8536835 -1.1509781 -1.4648056q-0.41363525 -0.62610626 -0.91324615 -1.4874115q-0.49960327 -0.86130524 -1.0197525 -1.8469658q-0.52459717 -1.0006447 -1.0281372 -2.0402565q-0.50798035 -1.054596 -0.92948914 -2.0373116q-0.40653992 -0.98722076 -0.6639633 -1.8561516q-0.2618637 -0.88391113 -0.28762817 -1.7409782q0.54787445 -0.7360077 1.0633087 -0.6463814q0.51099396 0.07464218 0.8269806 0.3711548q0.31599426 0.2965088 0.51786804 0.75790787q0.1198349 0.40449905 0.14152527 0.6427307q0 0 0.13973999 0.25165558q0.15026093 0.2321701 0.31827545 0.5242653q0.16357422 0.27711487 0.2988739 0.5137863q0.14582825 0.21718979 -0.17775726 0.44512177q0.05970764 -0.45854187 0.7063675 -0.75107956q0.6616211 -0.29703903 1.3952637 -0.68102646q0.7336426 -0.3839836 1.4794464 -0.8369026q0.7413788 -0.46789932 1.2749252 -0.92220306q0.52911377 -0.46928406 0.7589874 -0.8484993q0.24039459 -0.39870453 0.1605072 -0.6683731q0.07480621 -0.022514343 -0.03715515 -0.07040405l0.3158493 -0.14401627q-0.9992981 -0.23770142 -1.8057404 -0.48450089q-0.7914734 -0.2513008 -1.6017151 -0.23587799q-0.79971313 -0.0040626526 -1.6896973 0.18222046q-0.8750229 0.18177795 -1.8774796 0.48349762q-0.7481003 0.2251625 -1.536644 0.478817q-0.7735901 0.24915314 -1.308281 0.5895767q-0.51973724 0.33592224 -0.7484665 0.82901764q-0.21376038 0.48859406 0.18125153 1.821949q-0.94260406 0.28370667 -1.2978973 0.12956238q-0.34033203 -0.15864563 -0.5848007 -0.37877655q-0.24447632 -0.22013092 -0.4274521 -0.50772095q-0.19793701 -0.2830925 -0.27339172 -0.53777695q-0.1375885 -0.46442795 -0.06291962 -0.92747116q0.070236206 -0.47802734 0.28514862 -0.85274124q0.22543335 -0.39419937 0.48802185 -0.7179947q0.2581482 -0.33877563 0.6044235 -0.65512466q0.8189697 -0.42598724 1.4013443 -0.71549225q0.5928955 -0.30899048 1.1436996 -0.54003906q0.55080414 -0.2310524 1.1149216 -0.41715622q0.5790787 -0.19060898 1.2822952 -0.40226364q0.7331314 -0.22066116 1.5616226 -0.33948517q0.8434601 -0.12332153 1.7523422 -0.13580322q0.9194107 -0.03196335 1.8023071 0.14287186q0.8784561 0.15985107 1.660553 0.5445175q0.79706573 0.38015747 1.3974686 1.0316353q0.59597015 0.6364937 0.87558746 1.5803299q0.275177 0.9288559 -0.06816864 1.7501602q-0.34334564 0.82130814 -1.0375443 1.5034523q-0.6986313 0.66716385 -1.552475 1.2504997q-0.8433151 0.5638504 -1.7088165 1.0527954q-0.86550903 0.488945 -1.5991516 0.87293243q-0.71588135 0.4439125 -0.79019165 0.3031006q1.3741302 0.84285355 2.9217224 1.6661339q1.5431442 0.8082962 2.8301544 1.3020706q1.2825775 0.47879028 2.2863083 0.73147583q1.0187073 0.24818039 1.7131805 0.44709015q0.70944214 0.19440842 1.0032349 0.4160118q0.66519165 0.48511887 0.05747986 1.2391396q-0.26968384 0.68491364 -1.1785736 0.6973915q-0.8894806 0.022956848 -1.9214935 -0.2701683q-1.012619 -0.28265 -2.1815796 -0.7630005q-1.158432 -0.49983597 -2.3152237 -1.0491219q-1.1462708 -0.56876755 -2.208847 -1.1300888q-1.0476227 -0.5658264 -0.9108124 -0.81912994zm10.0770645 -0.91174316q-0.15914917 -0.26213455 -0.18133545 -0.33704376l-0.044387817 -0.1498146q-0.18640137 -0.62922287 0.058929443 -1.1762695q0.24534607 -0.54704666 0.9186249 -0.7496948q0.4189453 -0.126091 0.99765015 0.28715134q0.58924866 0.39376068 1.3087006 0.7320061q0.71946716 0.3382492 1.6173248 0.50857925q0.89785767 0.17033005 1.9451904 -0.14489746q0.40397644 -0.12158966 0.7647095 -0.27911758q0.3712616 -0.17700958 0.59010315 -0.3734169q0.22937012 -0.21589279 0.31077576 -0.436203q0.07696533 -0.23528671 -0.007369995 -0.5199356q-0.25743103 -0.8689308 -0.85554504 -1.2926521q-0.6025543 -0.43870163 -1.4510803 -0.607563q-0.85298157 -0.18383789 -1.8277893 -0.118881226q-0.974823 0.064956665 -1.8404694 0.11337662q-0.87008667 0.03343582 -1.6697998 0.029373169q-0.7891846 -0.023548126 -1.0111084 -0.77262497q-0.07545471 -0.25468445 0.18614197 -0.25183105q0.27209473 -0.016628265 -0.23002625 -0.061309814q0.12350464 -0.2982483 0.24978638 -0.53206253q0.12184143 -0.24880219 0.24812317 -0.48262024q0.39230347 -0.21598053 0.8638611 -0.4394951q0.4671173 -0.23849869 0.99572754 -0.5444565q0.5241699 -0.3209381 1.0394592 -0.67184067q0.51530457 -0.35090256 0.8826294 -0.70622253q0.36288452 -0.3703003 0.5118561 -0.6925354q0.14898682 -0.3222351 0.0690918 -0.5919037q-0.035507202 -0.11985016 -0.24003601 -0.20514679q-0.20452881 -0.085300446 -0.5498047 -0.09560013q-0.34970093 -0.025283813 -0.7326355 0.0573349q-0.36795044 0.078113556 -0.6073456 0.15016937q-0.22442627 0.067546844 -0.68382263 0.22212982q-0.44885254 0.1350975 -0.86499023 0.32561874q-0.40118408 0.1860199 -0.74201965 0.19070053q-0.330307 -0.01480484 -0.0011444092 -0.11388016l0.31956482 1.0786705q-1.2867432 0.38728333 -1.9047546 0.1164093q-0.61802673 -0.27087402 -0.8576889 -1.0798798q-0.12427521 -0.41948318 -0.003578186 -0.7821579q0.13122559 -0.3821602 0.37277222 -0.6669884q0.24153137 -0.28482437 0.52911377 -0.46928024q0.2980957 -0.20394516 0.5973358 -0.29401016l3.6207886 -1.0897942q0.70321655 -0.21165466 1.3799438 -0.07266998q0.6916809 0.13448334 1.2421265 0.5072861q0.54600525 0.3578186 0.93743896 0.90901566q0.4064026 0.5466919 0.5883789 1.1609383q0.21746826 0.7340927 -0.08326721 1.3141327q-0.29022217 0.5605583 -0.639801 0.9758034q-0.33461 0.4107399 -0.5162964 0.67755127q-0.18170166 0.26681137 -0.14175415 0.40164566q-0.40397644 0.12158966 -0.12197876 -0.19172668l-0.250412 0.25485992q0.8843994 -0.31513977 1.7728729 -0.0114479065q0.8990021 0.2842102 1.682251 0.7827492q0.7832489 0.4985428 1.3864441 1.214447q0.5882263 0.7204094 0.87228394 1.6792297q0.2707367 0.91387177 0.0664978 1.709629q-0.20425415 0.7957573 -0.71725464 1.3744164q-0.51301575 0.57865524 -1.1840057 1.0090561q-0.6604767 0.4109192 -1.4235382 0.64058685q-0.6611328 0.13371277 -1.277359 0.2539177q-0.6206665 0.10522461 -1.4425812 0.026256561q-0.8263397 -0.09395218 -1.9343109 -0.47843933q-1.1079712 -0.38448715 -2.887207 -1.2196274z" fill-rule="nonzero"></path></g></svg>

